# xmcd
#
# Track frame offsets:
# 150
# 18676
# 38031
# 62408
# 79784
# 97955
# 120890
# 143233
# 166113
# 189752
#
# Disc length: 2754 seconds
#
#
# Revision: 0
# Processed by: cddbd v1.5.2PL0 Copyright (c) Steve Scherf et al.
# Submitted via: FreeRIP 2.945 
#
DISCID=6d0ac00a
DTITLE=Keith Sweat - Keep It Comin'
DYEAR=1900
DGENRE=R&B
TTITLE0=Keep It Comin'
TTITLE1=Spend A Little Time
TTITLE2=Why Me Baby
TTITLE3=I Really Love You
TTITLE4=Let Me Love You
TTITLE5=I Want To Love You Down
TTITLE6=I'm Going For Mine
TTITLE7=(There You Go) Tellin' Me No Again
TTITLE8=Give Me What I Want
TTITLE9=Ten Commandments Of Love
EXTD=
EXTT0=
EXTT1=
EXTT2=
EXTT3=
EXTT4=
EXTT5=
EXTT6=
EXTT7=
EXTT8=
EXTT9=
PLAYORDER=
